HIERARCHY
ROOT mixamorig:Hips
{
	OFFSET 0.000000 201.639420 0.000000
	CHANNELS 6 Xposition Yposition Zposition Xrotation Yrotation Zrotation
	JOINT mixamorig:Spine
	{
		OFFSET 0.006200 19.524994 -2.481800
		CHANNELS 3 Xrotation Yrotation Zrotation
		JOINT mixamorig:Spine1
		{
			OFFSET -0.000900 22.835007 -2.825400
			CHANNELS 3 Xrotation Yrotation Zrotation
			JOINT mixamorig:Spine2
			{
				OFFSET -0.020600 26.552490 -3.193300
				CHANNELS 3 Xrotation Yrotation Zrotation
				JOINT mixamorig:Neck
				{
					OFFSET -0.060000 30.701813 1.352200
					CHANNELS 3 Xrotation Yrotation Zrotation
					JOINT mixamorig:Head
					{
						OFFSET -0.087200 22.547607 3.670900
						CHANNELS 3 Xrotation Yrotation Zrotation
						JOINT mixamorig:HeadTop_End
						{
							OFFSET -0.830600 40.355194 7.893500
							CHANNELS 3 Xrotation Yrotation Zrotation
							End Site
							{
								OFFSET 0.000000 30.592346 0.000000
							}
						}
						JOINT mixamorig:RightEye
						{
							OFFSET -6.302100 18.118591 16.197100
							CHANNELS 3 Xrotation Yrotation Zrotation
							End Site
							{
								OFFSET 0.000000 30.592346 0.000000
							}
						}
						JOINT mixamorig:LeftEye
						{
							OFFSET 6.741500 18.382690 16.401899
							CHANNELS 3 Xrotation Yrotation Zrotation
							End Site
							{
								OFFSET 0.000000 30.592346 0.000000
							}
						}
					}
				}
				JOINT mixamorig:LeftShoulder
				{
					OFFSET 11.924900 18.230499 1.425400
					CHANNELS 3 Xrotation Yrotation Zrotation
					JOINT mixamorig:LeftArm
					{
						OFFSET 25.435989 -0.697632 -5.229300
						CHANNELS 3 Xrotation Yrotation Zrotation
						JOINT mixamorig:LeftForeArm
						{
							OFFSET 54.684776 0.000000 0.000000
							CHANNELS 3 Xrotation Yrotation Zrotation
							JOINT mixamorig:LeftHand
							{
								OFFSET 55.098175 0.000000 0.000000
								CHANNELS 3 Xrotation Yrotation Zrotation
								JOINT mixamorig:LeftHandMiddle1
								{
									OFFSET 23.369751 0.000000 0.000000
									CHANNELS 3 Xrotation Yrotation Zrotation
									JOINT mixamorig:LeftHandMiddle2
									{
										OFFSET 6.378677 0.000000 0.000000
										CHANNELS 3 Xrotation Yrotation Zrotation
										JOINT mixamorig:LeftHandMiddle3
										{
											OFFSET 6.148331 0.000000 0.000000
											CHANNELS 3 Xrotation Yrotation Zrotation
											JOINT mixamorig:LeftHandMiddle4
											{
												OFFSET 6.582504 0.000000 0.000000
												CHANNELS 3 Xrotation Yrotation Zrotation
												End Site
												{
													OFFSET -1.168900 6.395691 1.028606
												}
											}
										}
									}
								}
								JOINT mixamorig:LeftHandThumb1
								{
									OFFSET 7.235672 -3.848206 5.434273
									CHANNELS 3 Xrotation Yrotation Zrotation
									JOINT mixamorig:LeftHandThumb2
									{
										OFFSET 6.568451 -3.792297 3.792300
										CHANNELS 3 Xrotation Yrotation Zrotation
										JOINT mixamorig:LeftHandThumb3
										{
											OFFSET 6.063080 -3.500519 3.500518
											CHANNELS 3 Xrotation Yrotation Zrotation
											JOINT mixamorig:LeftHandThumb4
											{
												OFFSET 4.793182 -2.767334 2.767349
												CHANNELS 3 Xrotation Yrotation Zrotation
												End Site
												{
													OFFSET 0.101639 6.054260 1.275483
												}
											}
										}
									}
								}
								JOINT mixamorig:LeftHandIndex1
								{
									OFFSET 23.101074 -0.309540 4.992809
									CHANNELS 3 Xrotation Yrotation Zrotation
									JOINT mixamorig:LeftHandIndex2
									{
										OFFSET 6.226883 0.000000 0.000000
										CHANNELS 3 Xrotation Yrotation Zrotation
										JOINT mixamorig:LeftHandIndex3
										{
											OFFSET 6.094330 0.000000 0.000000
											CHANNELS 3 Xrotation Yrotation Zrotation
											JOINT mixamorig:LeftHandIndex4
											{
												OFFSET 5.482605 0.000000 0.000000
												CHANNELS 3 Xrotation Yrotation Zrotation
												End Site
												{
													OFFSET -1.427902 5.233032 0.797164
												}
											}
										}
									}
								}
								JOINT mixamorig:LeftHandRing1
								{
									OFFSET 22.299240 0.021149 -3.964172
									CHANNELS 3 Xrotation Yrotation Zrotation
									JOINT mixamorig:LeftHandRing2
									{
										OFFSET 6.321869 0.000000 0.000000
										CHANNELS 3 Xrotation Yrotation Zrotation
										JOINT mixamorig:LeftHandRing3
										{
											OFFSET 5.899796 0.000000 0.000000
											CHANNELS 3 Xrotation Yrotation Zrotation
											JOINT mixamorig:LeftHandRing4
											{
												OFFSET 6.517899 0.000000 0.000000
												CHANNELS 3 Xrotation Yrotation Zrotation
												End Site
												{
													OFFSET -1.637299 6.232208 0.980890
												}
											}
										}
									}
								}
								JOINT mixamorig:LeftHandPinky1
								{
									OFFSET 20.463791 -0.302338 -8.562233
									CHANNELS 3 Xrotation Yrotation Zrotation
									JOINT mixamorig:LeftHandPinky2
									{
										OFFSET 6.908646 0.000000 0.000000
										CHANNELS 3 Xrotation Yrotation Zrotation
										JOINT mixamorig:LeftHandPinky3
										{
											OFFSET 4.622849 0.000000 0.000000
											CHANNELS 3 Xrotation Yrotation Zrotation
											JOINT mixamorig:LeftHandPinky4
											{
												OFFSET 5.216080 0.000000 0.000000
												CHANNELS 3 Xrotation Yrotation Zrotation
												End Site
												{
													OFFSET -0.606308 5.116241 0.814926
												}
											}
										}
									}
								}
							}
						}
					}
				}
				JOINT mixamorig:RightShoulder
				{
					OFFSET -12.001300 18.284088 1.348900
					CHANNELS 3 Xrotation Yrotation Zrotation
					JOINT mixamorig:RightArm
					{
						OFFSET -25.308500 -0.751312 -5.164599
						CHANNELS 3 Xrotation Yrotation Zrotation
						JOINT mixamorig:RightForeArm
						{
							OFFSET -54.684429 0.000000 0.000000
							CHANNELS 3 Xrotation Yrotation Zrotation
							JOINT mixamorig:RightHand
							{
								OFFSET -55.150291 0.000000 0.000000
								CHANNELS 3 Xrotation Yrotation Zrotation
								JOINT mixamorig:RightHandMiddle1
								{
									OFFSET -23.317566 0.000000 0.000000
									CHANNELS 3 Xrotation Yrotation Zrotation
									JOINT mixamorig:RightHandMiddle2
									{
										OFFSET -6.378403 0.000000 0.000000
										CHANNELS 3 Xrotation Yrotation Zrotation
										JOINT mixamorig:RightHandMiddle3
										{
											OFFSET -6.148193 0.000000 0.000000
											CHANNELS 3 Xrotation Yrotation Zrotation
											JOINT mixamorig:RightHandMiddle4
											{
												OFFSET -6.583389 0.000000 0.000000
												CHANNELS 3 Xrotation Yrotation Zrotation
												End Site
												{
													OFFSET 1.171692 6.395905 1.029786
												}
											}
										}
									}
								}
								JOINT mixamorig:RightHandThumb1
								{
									OFFSET -7.190521 -3.860474 5.435846
									CHANNELS 3 Xrotation Yrotation Zrotation
									JOINT mixamorig:RightHandThumb2
									{
										OFFSET -6.567429 -3.791718 3.791708
										CHANNELS 3 Xrotation Yrotation Zrotation
										JOINT mixamorig:RightHandThumb3
										{
											OFFSET -6.062469 -3.500153 3.500166
											CHANNELS 3 Xrotation Yrotation Zrotation
											JOINT mixamorig:RightHandThumb4
											{
												OFFSET -4.792618 -2.767029 2.767022
												CHANNELS 3 Xrotation Yrotation Zrotation
												End Site
												{
													OFFSET -0.100327 6.053253 1.276754
												}
											}
										}
									}
								}
								JOINT mixamorig:RightHandIndex1
								{
									OFFSET -23.048981 -0.310791 4.992554
									CHANNELS 3 Xrotation Yrotation Zrotation
									JOINT mixamorig:RightHandIndex2
									{
										OFFSET -6.227539 0.000000 0.000000
										CHANNELS 3 Xrotation Yrotation Zrotation
										JOINT mixamorig:RightHandIndex3
										{
											OFFSET -6.095047 0.000000 0.000000
											CHANNELS 3 Xrotation Yrotation Zrotation
											JOINT mixamorig:RightHandIndex4
											{
												OFFSET -5.484772 0.000000 0.000000
												CHANNELS 3 Xrotation Yrotation Zrotation
												End Site
												{
													OFFSET 1.420593 5.237305 0.797056
												}
											}
										}
									}
								}
								JOINT mixamorig:RightHandRing1
								{
									OFFSET -22.246323 0.020569 -3.963762
									CHANNELS 3 Xrotation Yrotation Zrotation
									JOINT mixamorig:RightHandRing2
									{
										OFFSET -6.322128 0.000000 0.000000
										CHANNELS 3 Xrotation Yrotation Zrotation
										JOINT mixamorig:RightHandRing3
										{
											OFFSET -5.900024 0.000000 0.000000
											CHANNELS 3 Xrotation Yrotation Zrotation
											JOINT mixamorig:RightHandRing4
											{
												OFFSET -6.518356 0.000000 0.000000
												CHANNELS 3 Xrotation Yrotation Zrotation
												End Site
												{
													OFFSET 1.636398 6.232697 0.982186
												}
											}
										}
									}
								}
								JOINT mixamorig:RightHandPinky1
								{
									OFFSET -20.411011 -0.303314 -8.561701
									CHANNELS 3 Xrotation Yrotation Zrotation
									JOINT mixamorig:RightHandPinky2
									{
										OFFSET -6.907349 0.000000 0.000000
										CHANNELS 3 Xrotation Yrotation Zrotation
										JOINT mixamorig:RightHandPinky3
										{
											OFFSET -4.623840 0.000000 0.000000
											CHANNELS 3 Xrotation Yrotation Zrotation
											JOINT mixamorig:RightHandPinky4
											{
												OFFSET -5.218353 0.000000 0.000000
												CHANNELS 3 Xrotation Yrotation Zrotation
												End Site
												{
													OFFSET 0.602097 5.118835 0.816273
												}
											}
										}
									}
								}
							}
						}
					}
				}
			}
		}
	}
	JOINT mixamorig:LeftUpLeg
	{
		OFFSET 18.168400 -13.561905 -0.039000
		CHANNELS 3 Xrotation Yrotation Zrotation
		JOINT mixamorig:LeftLeg
		{
			OFFSET 0.577358 -80.825211 -3.695000
			CHANNELS 3 Xrotation Yrotation Zrotation
			JOINT mixamorig:LeftFoot
			{
				OFFSET -0.577356 -83.370262 -6.520700
				CHANNELS 3 Xrotation Yrotation Zrotation
				JOINT mixamorig:LeftToeBase
				{
					OFFSET 0.750401 -20.798306 25.135401
					CHANNELS 3 Xrotation Yrotation Zrotation
					JOINT mixamorig:LeftToe_End
					{
						OFFSET -0.000500 0.001200 19.917799
						CHANNELS 3 Xrotation Yrotation Zrotation
						End Site
						{
							OFFSET 0.000000 19.917805 0.000000
						}
					}
				}
			}
		}
	}
	JOINT mixamorig:RightUpLeg
	{
		OFFSET -18.162500 -13.585098 -0.041000
		CHANNELS 3 Xrotation Yrotation Zrotation
		JOINT mixamorig:RightLeg
		{
			OFFSET -0.595024 -80.945297 -3.631900
			CHANNELS 3 Xrotation Yrotation Zrotation
			JOINT mixamorig:RightFoot
			{
				OFFSET 0.595024 -83.218193 -6.561200
				CHANNELS 3 Xrotation Yrotation Zrotation
				JOINT mixamorig:RightToeBase
				{
					OFFSET -0.753601 -20.807106 25.115000
					CHANNELS 3 Xrotation Yrotation Zrotation
					JOINT mixamorig:RightToe_End
					{
						OFFSET 0.000299 0.001700 19.918200
						CHANNELS 3 Xrotation Yrotation Zrotation
						End Site
						{
							OFFSET 0.000000 19.918203 0.000000
						}
					}
				}
			}
		}
	}
}
MOTION
Frames: 4
Frame Time: 0.033333
-13.439671 163.892227 508.207184 -2.163660 8.508690 2.885254 7.298333 -15.835384 2.206360 2.534230 -7.413101 0.495621 2.494738 -7.426472 0.596209 5.838367 1.168869 -2.296401 -1.012482 6.197279 5.198267 0.000001 0.000001 -0.000001 0.000001 0.000001 -0.000001 0.000001 0.000001 -0.000001 -0.332544 -11.206734 -23.126580 -21.823414 -36.661874 -11.143552 0.000066 -68.767943 0.000059 -34.304738 -11.799658 20.228423 6.512629 6.871496 -87.274306 9.404154 6.404063 -111.556018 9.208644 6.477416 -109.813063 0.000001 0.000002 0.000003 4.891665 7.994789 1.883996 10.475071 36.544330 -16.206449 18.107153 67.043224 3.186337 -0.000001 0.000002 0.000003 7.775652 6.956321 -86.152714 10.250093 6.003551 -119.372063 9.029917 6.538642 -108.236416 0.000002 -0.000001 -0.000003 3.127873 6.869497 -89.819665 9.007634 6.545905 -108.040731 8.561876 6.673736 -104.169947 -0.000001 -0.000002 0.000002 1.160376 7.315418 -94.148420 8.017682 2.700451 -99.510734 10.792523 5.665901 -124.703927 0.000001 -0.000000 0.000003 0.350079 5.785226 21.317082 21.978574 29.739948 43.744442 0.000098 105.596405 -0.000101 -15.606152 -4.448091 -14.114609 6.610138 -6.940050 87.289435 9.494174 -6.467141 111.542645 9.295799 -6.532931 109.815331 0.000000 -0.000000 0.000002 2.101961 -10.083025 3.633740 25.660756 -30.716696 6.844835 36.126267 -53.497870 18.680830 -0.000002 0.000000 0.000001 9.556157 -7.137720 86.157905 10.350160 -6.061948 119.375533 9.118075 -6.602305 108.238827 0.000001 0.000000 0.000004 1.946416 -7.142827 92.181128 8.379085 -6.800012 101.912337 8.643615 -6.731578 104.171641 -0.000001 -0.000000 -0.000001 -2.850705 -7.674976 94.127493 8.100960 -6.852405 99.572677 10.897912 -5.720970 124.707780 -0.000001 -0.000001 0.000003 14.203514 21.097380 12.108037 37.438756 3.698654 10.276649 -22.967616 3.899773 -17.388275 -15.712237 0.913798 -8.809793 -0.000000 0.000003 -0.000000 -55.666612 4.818067 -4.126212 70.576884 7.945000 -10.169832 -16.087643 13.277212 22.457416 -0.001320 0.000006 -0.000004 -0.000000 0.000002 0.000000 
-12.639147 162.786682 508.021118 -1.568073 4.292837 2.831640 7.458240 -16.195261 2.275067 2.609745 -7.579020 0.566492 2.576160 -7.589331 0.668773 5.741629 2.082414 -3.165061 -3.906479 10.380385 4.547007 -0.000000 -0.000001 0.000000 -0.000000 -0.000001 0.000000 -0.000000 -0.000001 0.000000 -0.303266 -11.148377 -22.801362 -21.096117 -40.028655 -9.116743 0.000038 -53.000096 0.000027 -33.634297 -9.580903 21.493355 6.512639 6.871478 -87.274320 9.404140 6.404050 -111.556059 9.208622 6.477413 -109.813070 -0.000003 0.000001 0.000003 4.891664 7.994784 1.883995 10.475058 36.544357 -16.206444 18.107190 67.043211 3.186285 0.000002 0.000000 0.000001 7.775667 6.956308 -86.152721 10.250094 6.003556 -119.372049 9.029905 6.538642 -108.236430 0.000000 -0.000005 -0.000004 3.127889 6.869486 -89.819692 9.007618 6.545895 -108.040731 8.561878 6.673740 -104.169954 -0.000000 0.000001 0.000002 1.160393 7.315400 -94.148434 8.017670 2.700460 -99.510727 10.792552 5.665884 -124.703955 0.000001 0.000001 -0.000001 0.389008 5.609114 20.220046 27.261698 27.555845 43.039771 -0.000168 102.896766 0.000157 -18.684319 -3.735634 -14.531864 6.610150 -6.940038 87.289435 9.494159 -6.467125 111.542631 9.295791 -6.532938 109.815351 0.000001 -0.000000 -0.000000 2.101985 -10.083022 3.633759 25.660746 -30.716693 6.844839 36.126281 -53.497856 18.680835 -0.000002 -0.000001 0.000003 9.556162 -7.137697 86.157925 10.350172 -6.061962 119.375546 9.118070 -6.602300 108.238821 0.000001 -0.000000 -0.000001 1.946427 -7.142800 92.181141 8.379063 -6.800014 101.912324 8.643609 -6.731580 104.171655 -0.000001 0.000002 -0.000004 -2.850705 -7.674965 94.127506 8.100948 -6.852412 99.572690 10.897917 -5.720983 124.707752 0.000000 0.000000 -0.000002 13.991228 22.414507 10.586257 39.944312 4.384775 10.009759 -22.430667 4.283811 -18.038096 -17.169909 1.011043 -9.262391 0.000000 0.000000 0.000000 -57.822169 5.353143 -2.235291 71.226203 8.095338 -10.162218 -15.477180 15.605905 22.022601 -0.000839 0.000005 0.000002 -0.000000 -0.000000 0.000001 
-11.288397 161.457565 507.466156 -0.866804 -0.072356 3.081360 7.997762 -13.792263 2.828116 2.874702 -6.466990 0.844031 2.842961 -6.475757 0.929882 5.108672 2.183261 -4.032529 -7.562368 11.077697 2.181239 0.000001 -0.000001 -0.000000 0.000001 -0.000001 -0.000000 0.000001 -0.000001 -0.000000 -0.283925 -11.028575 -22.721862 -25.957760 -39.077336 -14.353897 0.000009 -54.848560 0.000013 -30.714917 -5.062129 21.746983 6.512629 6.871500 -87.274306 9.404148 6.404046 -111.556039 9.208626 6.477421 -109.813063 -0.000000 0.000000 0.000003 4.891649 7.994785 1.883989 10.475068 36.544323 -16.206459 18.107141 67.043245 3.186345 0.000002 0.000001 -0.000002 7.775669 6.956298 -86.152714 10.250094 6.003558 -119.372049 9.029918 6.538646 -108.236444 -0.000002 0.000000 0.000003 3.127869 6.869502 -89.819665 9.007623 6.545908 -108.040738 8.561903 6.673710 -104.169927 -0.000001 0.000002 0.000003 1.160385 7.315413 -94.148420 8.017691 2.700473 -99.510727 10.792551 5.665888 -124.703927 0.000000 0.000001 0.000001 0.398775 5.533440 20.070118 28.107589 22.401677 42.117583 0.000083 102.946988 -0.000087 -22.754726 -2.612483 -14.920596 6.610145 -6.940057 87.289415 9.494177 -6.467134 111.542631 9.295806 -6.532943 109.815351 -0.000001 0.000000 0.000003 2.101977 -10.083005 3.633751 25.660753 -30.716710 6.844839 36.126247 -53.497866 18.680813 -0.000002 0.000000 0.000002 9.556154 -7.137715 86.157891 10.350182 -6.061935 119.375533 9.118044 -6.602309 108.238821 0.000001 -0.000000 0.000001 1.946422 -7.142805 92.181141 8.379076 -6.800034 101.912303 8.643626 -6.731566 104.171668 -0.000002 -0.000001 0.000005 -2.850700 -7.674968 94.127493 8.100941 -6.852405 99.572683 10.897919 -5.720985 124.707766 -0.000001 0.000004 0.000001 13.116119 22.056214 9.335225 44.234009 3.984487 8.555388 -21.754607 4.295620 -18.243101 -18.921531 1.162691 -9.971336 -0.000000 0.000003 0.000000 -60.269712 6.264601 -0.597374 71.537906 8.236928 -10.156654 -14.490473 17.871928 21.716559 -0.000556 -0.000008 -0.000003 0.000000 0.000002 -0.000001 
-9.851918 160.138550 506.850555 -0.334037 -2.698932 2.837755 8.912401 -11.183596 3.925790 3.245803 -5.279624 1.382683 3.218679 -5.281594 1.457508 3.909738 2.002918 -4.134805 -10.116187 10.699624 0.218326 -0.000000 0.000001 -0.000000 -0.000000 0.000001 -0.000000 -0.000000 0.000001 -0.000000 -0.205405 -10.739649 -22.027234 -32.157982 -38.026399 -22.304714 0.000023 -59.925314 0.000010 -26.682576 -3.882964 23.690132 6.512655 6.871500 -87.274320 9.404154 6.404028 -111.556018 9.208614 6.477408 -109.813049 -0.000000 0.000000 -0.000002 4.891670 7.994783 1.884009 10.475050 36.544347 -16.206436 18.107153 67.043224 3.186314 0.000001 0.000000 0.000001 7.775686 6.956297 -86.152714 10.250075 6.003551 -119.372077 9.029915 6.538639 -108.236437 0.000002 -0.000002 -0.000001 3.127883 6.869501 -89.819672 9.007629 6.545903 -108.040731 8.561877 6.673719 -104.169947 -0.000001 -0.000001 -0.000003 1.160406 7.315394 -94.148427 8.017646 2.700443 -99.510727 10.792537 5.665898 -124.703955 -0.000001 -0.000003 0.000001 0.363777 5.671449 21.212846 26.522811 15.237961 42.107157 0.000200 103.575885 -0.000216 -27.914807 -1.042723 -15.186232 6.610156 -6.940043 87.289428 9.494173 -6.467140 111.542631 9.295794 -6.532941 109.815324 0.000000 -0.000001 0.000002 2.101984 -10.083006 3.633766 25.660759 -30.716716 6.844829 36.126250 -53.497860 18.680817 0.000000 0.000001 0.000001 9.556169 -7.137703 86.157919 10.350175 -6.061953 119.375533 9.118068 -6.602302 108.238814 0.000001 -0.000001 -0.000002 1.946430 -7.142809 92.181141 8.379077 -6.800016 101.912337 8.643610 -6.731565 104.171655 0.000002 -0.000000 0.000001 -2.850695 -7.674955 94.127486 8.100951 -6.852409 99.572677 10.897914 -5.720971 124.707752 0.000000 -0.000003 0.000003 12.420786 21.431754 8.743659 47.042207 2.851931 7.989708 -22.129033 4.370158 -18.143759 -20.148802 1.240171 -10.100539 0.000000 0.000000 -0.000000 -62.175041 6.244929 0.253629 71.762243 8.337719 -10.152809 -13.711469 19.356468 21.560616 -0.000354 -0.000005 -0.000004 0.000000 0.000000 0.000001 
